# xmcd
#
# Track frame offsets:
#	150
#	23910
#	41903
#	54933
#	66828
#	84541
#	101966
#	123675
#	139514
#	155124
#	171092
#	185588
#	199350
#	217628
#
# Disc length: 3072 seconds
#
# Revision: 2
# Processed by: cddbd v1.5.2PL0 Copyright (c) Steve Scherf et al.
# Submitted via: audiograbber 1.83.01
#
DISCID=cd0bfe0e
DTITLE=Luis Torres - I Love Salsa
DYEAR=2009
DGENRE=Salsa
TTITLE0=Aguanile
TTITLE1=I Love Salsa
TTITLE2=Lloraras
TTITLE3=Ay Ay
TTITLE4=Candela
TTITLE5=La Clave
TTITLE6=Quimbara
TTITLE7=Que Bueno Baila Usted
TTITLE8=Ban Ban
TTITLE9=Ella No Baila Sola
TTITLE10=Mi Dia De Suerte
TTITLE11=Que Suene El Tambor! Que Suene El Timbal!
TTITLE12=Se Le Ve
TTITLE13=Verdadero Son
EXTD=YEAR: 2009
EXTT0=
EXTT1=
EXTT2=
EXTT3=
EXTT4=
EXTT5=
EXTT6=
EXTT7=
EXTT8=
EXTT9=
EXTT10=
EXTT11=
EXTT12=
EXTT13=
PLAYORDER=
